<?xml version="1.0" encoding="UTF-8"?>
<svg id="Capa_2" xmlns="http://www.w3.org/2000/svg" viewBox="0 0 294.99 196.33">
  <defs>
    <style>
      .cls-1 {
        fill: #f9efe5;
      }
    </style>
  </defs>
  <g id="Capa_4">
    <g>
      <path class="cls-1" d="M56.04,69.09c1.11-1.38,1.88-2.29,2.3-2.78,1.66-1.98,2.9-4.16,3.67-6.46.78-2.33,1.31-5.08,1.59-8.17.27-1.96.41-3.3.41-4.05,0-.8-.09-1.65-.28-2.59-.21-1.01-.35-1.75-.43-2.18-.71-4.09-2.54-7.8-5.44-11.01-2.95-3.26-6.54-5.83-10.69-7.64-4.15-1.8-8.33-2.73-12.45-2.73-2.06,0-3.59.07-4.55.19-.07.02-.37.12-.72.24-.37.12-.68.2-.95.25-.14,1.89-.23,4.02-.23,6.21l.21,26.34-.11,12.42c0,3.28.1,6.73.31,10.23v19.98c.07.41.11,1.3.11,2.5,1.28-.02,2.96-.09,5.02-.19,2.85-.11,5.12-.12,6.83-.14v-19.99c0-1.33.76-1.86,1.41-2.02,4.45-1.59,8.11-3.4,10.87-5.38,1.07-.77,2.11-1.78,3.12-3.02ZM48.76,60.15c-.23.24-.72.73-1.49,1.49-.85.87-1.75,1.58-2.68,2.12l-1.66.83h-1.91l-.08-1.45.1-9.37c0-2-.07-4.94-.2-8.8l-.11-11.61,2.05.73c2.42.87,4.32,2.24,5.63,4.08,1.23,1.72,2.25,4.01,3.05,6.79.66,2.37.98,4.26.98,5.81,0,3.62-1.24,6.78-3.69,9.39Z"/>
      <path class="cls-1" d="M75.68,19.57h0c1.13.8,2.2,1.2,3.19,1.2,2.33,0,4.38-.62,6.27-1.88,1.72-1.15,2.56-2.68,2.56-4.7,0-1.41-.28-2.55-.87-3.47-.63-.99-1.65-2.05-3.02-3.12-.31-.25-.68-.44-1.11-.6-.43-.14-.86-.21-1.24-.21-1.39,0-2.69.46-3.99,1.41-1.38,1.03-2.56,2.31-3.49,3.81-.62.92-.92,1.75-.92,2.5v.42l.58,2.29c.23.78.92,1.6,2.05,2.37Z"/>
      <path class="cls-1" d="M81.25,88.48h.2l1.28-22.27c.14-3.27.41-8.16.82-14.71l.21-3.02c.13-2.65.28-4.75.41-6.29.07-1.01.19-2.41.36-4.18.18-1.75.33-3.13.47-4.13l.07-1.3c-.54-.09-1.85-.3-4.7-.55-3.38-.29-5.63-.45-6.72-.46-.15,1.18-.26,2.54-.31,3.98-.07,1.68-.1,2.78-.1,3.33,0,2.23-.11,4.52-.32,6.8l-1.14,11.47c-.62,6.75-1.21,17.1-1.75,30.75v.08c1.11.01,2.63.08,4.57.19,2.1.21,4.31.32,6.63.32Z"/>
      <path class="cls-1" d="M122.02.82l-21.25-.82-3.36.1c-1.41.1-2.71.08-3.61.15.05.35.12.83.21,1.45.01,2.85.07,3.36.08,3.44l.14,2.09v4.6l25.37.44-17.37,31.45c-2.04,3.55-4.2,8.02-6.45,13.3-.57,1.42-.7,1.91-.73,2.06l.02,1.25c0,2.31.24,5.15.71,8.46.01.55.07,1.15.2,2,.3-.06.57-.12.82-.18,4.12-.38,7.92-.8,11.54-1.29l19.19-1.67c1.42-.14,2.42-.27,3-.39.37-.08.81-.17,1.3-.25-.01-.03-.02-.07-.04-.11-.33-2.53-.79-5.94-1.44-10.44-.96.07-2.29.11-3.93.11l-14.87.94.85-1.98c.57-1.34,2.92-6.11,4.79-9.88l6.88-12.29c2.14-4.33,4.44-8.76,6.79-13.07l.27-.36s-.01.01-.01.01c-.02,0,.07-.18.2-.42.08-.16.15-.28.2-.38l.17-.42,2.27-4.16c.38-.71.44-1.14.44-1.32l.26-4.19c.11-1.61.15-2.94.15-4.04.09-.62.15-1.12.21-1.71.05-.44.08-.9.09-1.41l-.53.08-12.57-1.15Z"/>
      <path class="cls-1" d="M175.73,30.34h-.01c-1.93-1.45-3.78-2.53-5.48-3.2-1.62-.65-3.49-.98-5.57-.98-4.76,0-8.55,1.16-11.25,3.44-2.82,2.39-5.5,6.13-7.95,11.14-1.79,3.7-3.13,7.97-3.96,12.71-.85,4.77-1.27,9.68-1.27,14.61,0,6.35,1.58,12.69,4.71,18.85,1.31,2.59,3.27,4.7,5.82,6.29,2.53,1.57,5.25,2.37,8.11,2.37,3.28,0,6.15-1.17,8.76-3.6,2.75-2.54,5.05-5.68,6.82-9.36,1.79-3.72,3.07-7.45,3.8-11.08l.38-1.91c-.72-.09-2.04-.23-4.38-.39-2.9-.2-5.21-.35-6.94-.43-.21.54-.59,1.62-1.18,3.79l-.95,3.06c-.71,1.68-1.61,3.24-2.75,4.76-1.37,1.83-2.89,2.74-4.49,2.74-1.84,0-4.24-.97-5.21-5.59-.63-3.01-.96-6.25-.96-9.61,0-4.86.54-10.23,1.62-15.97,1.15-6.11,3.03-10.14,5.73-12.31,1.07-.79,2.39-1.17,3.98-1.17,2.91,0,4.32,1.22,5,2.23.82,1.24,1.23,2.84,1.28,4.89l10.58-.05c.28-.25.37-.59.39-1.03.04-.69.06-1.09.06-1.29.13-1.18.2-1.91.2-2.29,0-2.42-.38-4.52-1.13-6.22-.72-1.63-1.99-3.11-3.77-4.4Z"/>
      <path class="cls-1" d="M188.81,102.5h.07c.12,0,.28.03.47.11.08-.3.2-.73.34-1.25.23-.73.5-1.67.83-2.87l1.87-6.98.47-.41c.28-.2.75-.41,1.46-.3h.27l13.09,1.12.83.27.47,2.39,1.29,7.51c.24-.05.6-.14,1.13-.28.96-.29,2.08-.51,3.33-.63,1.2-.11,2.51-.16,3.93-.16h2.26c.14-.97.05-1.85-.13-2.62l-3.1-19.04c-.3-1.69-.64-4.22-1.05-7.58-.76-5.23-1.3-8.91-1.63-10.98l-4.47-25.14c-.65.01-1.43-.03-1.89-.12-1.6-.2-4.16-.44-7.58-.71-.65-.09-1.26-.24-1.89-.43-.26-.08-.5-.14-.69-.17-1.28,3.54-2.91,8.84-4.92,15.88-1.4,5.02-2.39,8.51-3.01,10.46-.41,1.38-1.01,3.25-1.78,5.58-.76,2.34-1.37,4.22-1.87,5.6-1.14,3.65-2.31,8-3.47,12.89l-3.62,13.79c-.11.57-.34,1.42-.71,2.48,3.48.38,5.8.74,7.09,1.09.31.03,1.26.2,2.61.5ZM198.08,71.88c.57-2.24,1.01-3.93,1.36-5.06.04-.17.19-.69.43-1.41.21-.72.46-1.33.69-1.79l1.81-3.78,1.14,4.45,1.88,9.66c.06.32.18.8.33,1.43.2.74.31,1.48.31,2.16v1.44h-4.71c-1.58,0-2.72-.08-3.52-.24l-1.58-.3,1.86-6.57Z"/>
      <g>
        <path class="cls-1" d="M30.93,114.32c-2.07-.36-3.36-.57-4.15-.63l-17.98-1.45c-.52-.09-1.15-.1-2.14-.1l-.56-.1c-.38-.01-.68-.05-.94-.11l-.49-.15c0,.07,0,.12,0,.16l-.62,9.37-2.9,35.13-.3,6.1c0,1.13-.02,2.73-.05,4.75-.04,2.04-.09,3.66-.15,4.85,0,.99-.07,2.51-.21,4.5-.21,1.57-.31,3.04-.31,4.49l-.1.81c5.92.37,8.46.45,9.55.45.33.03,1.02.09,4.58.06l4.41-.06,4.28.11c.72.08,1.43.18,2.29.33.26.05.51.08.73.11l-.03-1.3.11-5.03c0-1.72-.04-3.04-.1-3.93-.04-.44-.08-.72-.12-.89-.1-.02-.25-.05-.46-.06l-11.73-1.09-.82-.41-.21-1.5c.54-6.07.89-10.53,1.04-13.4l.13-.52.4-.86,1.5-.21c.56,0,1.11.05,1.63.12.4.07.81.09,1.26.09l2.51.21c2.23.15,3.85.28,4.84.42.15-.03.57.06.93.2.13.07.3-.23.46-1.26-.02-3.48.09-6.3.3-8.18l.21-1.68c0-.07,0-.15.02-.24l-13.26-.8v-1.68c.21-1.49.55-5.25,1.04-11.5l.44-4.17.31-1.26,1.36.16c5.15.62,10.03,1.15,14.63,1.57.14-.01.24-.06.25-.06l.37-5.11c.07-1.15.24-2.94.52-5.34.08-.3.15-.52.21-.69-.12-.02-.28-.05-.48-.06-1.27-.1-2-.15-2.17-.15Z"/>
        <path class="cls-1" d="M75.48,146.2c-.07.63-.14,1.35-.21,2.16-.07.78-.09,1.41-.09,1.86,0,1.07-.07,2.53-.21,4.37l-.46,3.54-1.23,2.48-1.55-2.18c-1.91-3.15-3.77-6.54-5.54-10.11l-10.96-21.65c-.51-1.24-1.71-3.73-3.62-7.51-.08-.17-.27-.69-.54-1.56-.02-.05-.02-.08-.02-.1-.41.05-1.31.19-3.16.67-1.87.46-3.37.9-4.5,1.31-.41.1-.73.19-1.13.33-.52.16-.95.27-1.33.35-.14.63-.28,1.86-.28,4.01l-3,44.16-.09,16.57.07,2.22,7.01.09,3.42.25v-.02l2.19-40.44.68-4.96,2.2,4.55c.13.27.57,1.13,1.32,2.56l3.55,7.78c1.5,3.16,3.27,6.58,5.27,10.16,2.03,3.64,4.04,7.15,6.03,10.54l4.24,7.31c.08.15.14.29.22.47,1.97.07,5.58.14,10.49.14v-.25s.17-1.07.17-1.07c.09-.57.14-1.05.14-1.41.15-.99.41-3.68.83-8.46l1.45-13.68,1.55-19.33.94-7.55.69-9.76-11.84-2.42-2.68,24.58Z"/>
        <path class="cls-1" d="M127.68,101.02c-1.13-.08-1.77-.14-1.94-.14-2.06-.36-3.35-.56-4.15-.62l-17.98-1.47c-.52-.09-1.15-.1-2.15-.1l-.5-.08c-.49-.02-.84-.07-1.14-.17l-.34-.09h-.01c0,.06,0,.11,0,.15l-.63,9.36-2.89,35.13-.31,6.11c0,1.12-.02,2.72-.05,4.75s-.08,3.65-.15,4.85c0,.98-.07,2.51-.21,4.5-.21,1.56-.3,3-.3,4.49l-.1.81c5.92.37,8.46.45,9.54.45.33.02,1.05.1,4.58.06,2.6-.05,4.07-.06,4.42-.06l4.28.1c.73.08,1.44.19,2.31.34.25.05.49.08.72.1l-.03-1.29.1-5.03c0-1.74-.04-3.06-.09-3.93-.04-.45-.08-.72-.12-.89-.1-.02-.25-.05-.46-.06l-11.78-1.13-.76-.42-.21-1.47c.55-6.08.89-10.54,1.04-13.4l.15-.55.41-.82,1.47-.2c.56,0,1.11.05,1.63.12.38.06.8.08,1.27.08l2.52.23c2.23.14,3.86.27,4.85.43.16-.09.55.06.91.19.14.07.28-.2.46-1.29-.02-3.56.08-6.3.3-8.17l.21-1.67c0-.06,0-.12.02-.2l-13.26-.81v-1.71c.22-1.54.58-5.63,1.04-11.48l.46-4.21.33-1.24,1.33.16c5.15.62,10.03,1.14,14.63,1.56.14-.01.24-.06.24-.06l.38-5.11c.07-1.13.24-2.94.52-5.33.07-.29.14-.51.21-.7-.13-.01-.28-.03-.48-.05l-.23-.02Z"/>
        <path class="cls-1" d="M156.44,158.76c3.08-2.68,5.28-4.69,6.61-6.02,2.89-3.01,5.32-6.61,7.21-10.69,1.87-4.07,2.82-8.07,2.82-11.88,0-2.03-.18-3.71-.53-5.01-.32-1.23-1.01-2.5-2.06-3.8-1.18-1.65-2.48-2.78-3.86-3.44-1.4-.67-3.13-1-5.16-1-2.68,0-5.15.8-7.35,2.37-2.27,1.62-4.64,3.81-7.05,6.52v.03l-.5.61c-.33.37-.81.59-1.33.59h-1.52l.1-5.34c.07-.7.1-1.6.11-2.78l-5.9.1c-2.39.14-4.29.2-5.67.21.02.5.02,1.17.02,2.1,0,3.02-.09,3.49-.12,3.69.02,1.62,0,3.84-.03,6.39-.04,2.55-.09,4.57-.15,6.02,0,.73-.04,1.7-.11,2.9-.07,1.15-.14,2.11-.21,2.89l-1.14,43.99c0,.36.01.6.02.77.11.01.27.03.46.05.98.07,2.57.1,4.73.1l4.04-.1c.27,0,.54-.01.9-.05.2-.02.4-.06.58-.1.14-1.31.2-3.42.2-6.32.14-3.4.21-8.9.21-16.36v-4.4l2.74,3.54c1.22,1.58,2.24,2.85,3.06,3.81l5.73,7.44c3.51,4.92,6.36,8.7,8.54,11.31.08.15.15.26.21.36.7-.44,2.58-1.61,6.89-4.68l.94-.59c.24-.14.41-.27.53-.39l.11-.11c-1.47-2.14-3.64-5.22-6.51-9.22-3.25-4.5-5.8-8.11-7.72-10.79-.26-.29-.56-.71-.56-1.39v-.59l.73-.72ZM153.15,146.69l-.04.02c-2.39,1.86-4.13,2.72-5.5,2.72h-1.52v-1.44c0-.41.08-.76.25-1.05,1.4-3.51,3.41-7.38,5.96-11.54,2.9-4.76,5.45-6.97,8.02-6.97.81,0,1.41.18,1.86.55.79.6.79,1.68.79,2.03,0,2.77-1.02,5.61-3.04,8.47-1.95,2.72-4.23,5.14-6.79,7.22Z"/>
        <path class="cls-1" d="M216.59,138.99c-2.82-.2-6.99-.3-12.33-.3h-3.78l-.19,11.47c1.54,0,3.26.07,5.05.25l4.36.14v1.4c0,.74-.23,2.37-2.2,7.82-1.42,3.96-3.06,7.62-4.84,10.87-2.11,3.86-3.94,5.57-5.95,5.57-.68,0-1.68-.2-2.65-1.2-1.99-1.92-3.42-4.11-4.22-6.48-.76-2.27-1.15-4.94-1.15-7.94,0-3.84.14-6.61.43-8.44.99-6.65,3.41-12.36,7.18-16.92,3.91-4.72,9.16-7.13,15.61-7.13,1.21,0,2.14.09,2.87.26.05.01.09.03.14.05-.01-1.38.04-3.12.13-5.26l.11-4.98c-.37-.07-.6-.3-.68-.39-.28-.17-1.46-.62-4.11-.62-7.06,0-13.15,2.01-18.11,5.96-5.03,4.01-8.91,9.31-11.49,15.76-2.61,6.49-3.93,13.38-3.93,20.47,0,3.55.38,6.63,1.13,9.14.76,2.55,2.08,5.36,3.93,8.35l1.2,2.01c.53.87,1.08,1.58,1.6,2.11,1.67,1.82,3.61,3.18,5.8,4.1,4.3,1.77,9.57,2.47,13.34-1.34,2.04-2.05,4.16-4.76,6.28-8.04,3.01-4.59,5.37-9.98,7-16.02,1.63-6.01,2.95-12.76,3.91-20.06-.62-.05-1.27-.12-1.97-.25-1.03-.16-1.85-.28-2.45-.35Z"/>
        <path class="cls-1" d="M240.05,115.44l-.02-.02c-.3-.24-.64-.42-1.08-.57-.44-.14-.86-.21-1.24-.21-1.37,0-2.71.47-3.99,1.41-1.39,1.05-2.57,2.32-3.49,3.81-.63.94-.92,1.74-.92,2.5v.42l.58,2.29c.24.78.94,1.6,2.05,2.37,1.14.8,2.21,1.2,3.2,1.2,2.33,0,4.37-.61,6.25-1.88,1.73-1.15,2.57-2.68,2.57-4.7,0-1.4-.28-2.54-.88-3.47-.62-.99-1.63-2.04-3.02-3.12Z"/>
        <path class="cls-1" d="M229.92,139.42c-.14,1.18-.26,2.54-.32,3.98-.06,1.67-.09,2.78-.09,3.33,0,2.25-.11,4.54-.33,6.81l-1.14,11.45c-.6,6.76-1.18,16.83-1.74,30.75v.08c.99.01,2.56.08,4.57.19,2.11.21,4.32.32,6.63.32h.2l.45-6.37.83-15.9c.13-3.26.41-8.16.82-14.71l.21-3.04c.14-2.64.27-4.72.41-6.27.07-1.01.19-2.41.37-4.18.18-1.76.33-3.13.47-4.13l.06-1.29c-.57-.11-1.87-.32-4.69-.56-3.39-.29-5.64-.45-6.72-.46Z"/>
        <path class="cls-1" d="M286.63,181.58l-3.09-18.94c-.28-1.69-.63-4.22-1.04-7.56-.76-5.24-1.31-8.92-1.65-10.99l-4.45-25.14c-.68-.03-1.41-.03-1.91-.14-1.6-.18-4.16-.43-7.58-.7-.65-.09-1.24-.24-1.88-.43-.3-.09-.52-.15-.69-.17-1.28,3.52-2.91,8.79-4.93,15.88-1.39,5.03-2.39,8.51-3.01,10.46-.41,1.38-.99,3.25-1.76,5.58-.76,2.34-1.39,4.21-1.86,5.6-1.15,3.66-2.32,8.02-3.48,12.89l-3.64,13.79c-.09.57-.33,1.41-.71,2.48,3.42.38,5.79.74,7.09,1.09.31.03,1.24.21,2.61.5h.06c.12,0,.3.03.49.11.09-.32.21-.73.36-1.26l2.7-9.84.46-.41c.45-.34.99-.44,1.67-.26l12.89.99.78.28.47.89.32,1.56,1.28,7.52c.24-.05.6-.14,1.11-.28,1.01-.3,2.14-.52,3.36-.62,1.17-.12,2.48-.17,3.91-.17h2.26c.14-.96.06-1.84-.12-2.63l-.02-.09ZM271.87,162.28h-4.73c-1.55,0-2.7-.08-3.52-.24l-1.58-.3,1.87-6.6c.54-2.2,1.01-3.89,1.35-5.03.06-.23.2-.72.41-1.4.23-.74.47-1.35.7-1.82l1.81-3.78,1.14,4.45,1.88,9.67c.06.29.18.78.34,1.41.21.82.31,1.53.31,2.18v1.44Z"/>
      </g>
      <path class="cls-1" d="M294.99,52.37l-.19.05v.36c.12-.14.19-.29.19-.41Z"/>
      <g>
        <path class="cls-1" d="M244.5,102.34c1.8-.16,3.7-.82,5.65-1.98,2.05-1.21,3.86-2.62,5.38-4.19.4-.43.78-.95,1.18-1.54.53-.8.83-1.25,1.03-1.52,1.11-1.71,2.17-4.17,3.09-7.2.91-3.01,1.37-5.66,1.37-7.87,0-1.47-.27-3.27-.81-5.37-.54-1.96-1.59-3.75-3.2-5.46-1.27-1.32-2.52-2.39-3.71-3.2-1.2-.8-2.58-1.48-4.15-2-.62-.17-1.62-.38-2.95-.62l-1.26-.26c-1.3-.36-2.29-.52-3.09-.52h-.91c-.12,0-.49.03-1.07.09l-.11.02c-.05.35-.07.68-.08,1.05-.02.67-.04,1.16-.04,1.51l-.37,5.73c-.08.65-.15,1.35-.25,2.21-.13,1.32-.2,2.11-.24,2.66-.08.89-.17,2.15-.25,3.86,0,1.05-.01,1.87-.07,2.4-.07,1.53-.15,2.71-.24,3.46l-.12,1.56c0,4.46-.19,10.2-.54,16.92l-.02.62c.9,0,2.16-.08,3.79-.23.53-.01,1.13-.06,1.95-.12ZM244.15,95.48c0-.85.07-1.69.2-2.54l.41-10.7.68-7.78c.07-1.06.12-1.91.12-2.46.08-1.49.17-2.58.24-3.38l.37-1.62h1.22c.56,0,1.04.19,1.35.34.12.05.24.1.33.12l.39.15c.2.1.44.21.69.33.4.17.68.32.84.43,1.52.64,2.77,1.47,3.62,2.38.9.96,1.55,2.29,1.99,4.07.43,1.39.65,2.81.65,4.14,0,1.98-.37,3.97-1.1,5.87-.71,1.83-1.67,3.79-2.87,5.83h0c-.85,1.44-1.53,2.51-2.03,3.21-.63.87-1.5,1.59-2.62,2.15-1.13.61-2.08.9-2.97.9h-1.52v-1.44Z"/>
        <path class="cls-1" d="M271.47,93.69c.31.01,1.1.02,2.45.01,1.54-.02,2.42-.03,2.62-.03l2.55.07c.37.03.72.09,1.11.15l.06-3.03c0-.98-.01-1.75-.06-2.24v-.05l-6.94-.72-.79-.41-.13-.99v-.36c.33-3.54.53-6.13.62-7.8l.13-.53.41-.85,1.03-.12c.59,0,.95.02,1.27.07.25.05.46.06.69.06l1.54.14c1.31.08,2.29.16,2.88.24h.08s.02-.08.02-.12c-.01-2.07.06-3.72.19-4.81l.06-.48-7.76-.48v-1.32c.13-1.2.34-3.44.62-7.05l.27-2.55.31-1.29,1.36.17c2.83.35,5.52.63,8.07.87l.24-2.46c.04-.64.13-1.63.28-2.98l-.83-.06c-1.27-.21-1.99-.34-2.44-.36l-10.64-.87c-.32-.05-.68-.06-1.21-.06l-.59-.1-.33,4.95-1.92,27.08c-.02,1.22-.06,2.18-.09,2.89,0,.56-.04,1.48-.12,2.67-.12.89-.19,1.71-.19,2.53,2.48.15,4.13.23,4.95.23l.24.02Z"/>
      </g>
    </g>
  </g>
</svg>